<?xml version="1.0" encoding="utf-8"?>
<!-- Generator: Adobe Illustrator 16.0.0, SVG Export Plug-In . SVG Version: 6.00 Build 0)  -->
<!DOCTYPE svg PUBLIC "-//W3C//DTD SVG 1.1//EN" "http://www.w3.org/Graphics/SVG/1.1/DTD/svg11.dtd">
<svg version="1.1" id="Layer_1" xmlns="http://www.w3.org/2000/svg" xmlns:xlink="http://www.w3.org/1999/xlink" x="0px" y="0px"
	 width="14px" height="14px" viewBox="0 0 14 14" enable-background="new 0 0 14 14" xml:space="preserve">
<circle fill="none" stroke="#706A5B" stroke-miterlimit="10" cx="7" cy="7" r="6.5"/>
<g>
	<path fill="#706A5B" d="M6.99,3.86c-0.17,0-0.32-0.06-0.44-0.18C6.43,3.56,6.37,3.42,6.37,3.24c0-0.18,0.06-0.33,0.18-0.45
		c0.12-0.12,0.27-0.18,0.44-0.18c0.18,0,0.33,0.06,0.45,0.18c0.121,0.12,0.18,0.27,0.18,0.45c0,0.17-0.06,0.32-0.18,0.44
		C7.32,3.8,7.17,3.86,6.99,3.86z M7.46,11.391H6.5v-6h0.96V11.391z"/>
</g>
</svg>
