<?xml version="1.0" encoding="utf-8"?>
<!-- Generator: Adobe Illustrator 16.0.0, SVG Export Plug-In . SVG Version: 6.00 Build 0)  -->
<!DOCTYPE svg PUBLIC "-//W3C//DTD SVG 1.1//EN" "http://www.w3.org/Graphics/SVG/1.1/DTD/svg11.dtd">
<svg version="1.1" id="Layer_1" xmlns="http://www.w3.org/2000/svg" xmlns:xlink="http://www.w3.org/1999/xlink" x="0px" y="0px"
	 width="61.29px" height="24.54px" viewBox="0 0 61.29 24.54" enable-background="new 0 0 61.29 24.54" xml:space="preserve">
<g>
	<path fill="#E2D86A" d="M22.86,0.11l0.72,5.83L22.86,0.11l-4.4,3.74c0.31-0.77,5.39,1.43,5.13,2.09"/>
</g>
<g>
	<path fill="none" stroke="#E2D86A" stroke-width="1.5" stroke-miterlimit="10" d="M8.91,23.65C4.88,19.47,4.99,12.82,9.17,8.79"/>
	<path fill="none" stroke="#E2D86A" stroke-width="1.5" stroke-miterlimit="10" d="M24.02,9.05C19.99,4.87,13.34,4.76,9.17,8.79"/>
</g>
<g>
	<path fill="#E2D86A" stroke="#274B69" stroke-width="0.25" stroke-miterlimit="10" d="M30.46,23.67v-0.87
		c0.27,0.23,0.6,0.42,0.98,0.55c0.39,0.14,0.72,0.2,1,0.2c1.26,0,1.88-0.51,1.88-1.54c0-0.35-0.14-0.66-0.41-0.91
		c-0.28-0.25-0.72-0.51-1.34-0.77c-0.77-0.33-1.3-0.68-1.61-1.04c-0.31-0.36-0.46-0.79-0.46-1.3c0-0.65,0.25-1.18,0.75-1.58
		c0.5-0.4,1.11-0.6,1.84-0.6c0.69,0,1.28,0.14,1.77,0.42v0.81c-0.59-0.39-1.21-0.58-1.84-0.58c-0.53,0-0.95,0.14-1.27,0.41
		c-0.32,0.27-0.48,0.63-0.48,1.07c0,0.38,0.1,0.69,0.3,0.93s0.65,0.51,1.34,0.82c0.83,0.38,1.41,0.72,1.72,1.04s0.47,0.75,0.47,1.28
		c0,0.64-0.24,1.16-0.71,1.57s-1.13,0.62-1.97,0.62C31.62,24.22,30.97,24.04,30.46,23.67z"/>
	<path fill="#E2D86A" stroke="#274B69" stroke-width="0.25" stroke-miterlimit="10" d="M40.29,24.22c-1.17,0-2.09-0.38-2.77-1.15
		s-1.02-1.77-1.02-3c0-1.33,0.36-2.37,1.07-3.12s1.65-1.13,2.81-1.13c1.14,0,2.04,0.37,2.7,1.12c0.66,0.75,0.99,1.78,0.99,3.09
		c0,1.25-0.34,2.25-1.01,3.02C42.39,23.84,41.46,24.22,40.29,24.22z M40.35,16.49c-0.94,0-1.69,0.32-2.25,0.95
		c-0.56,0.64-0.84,1.52-0.84,2.65c0,1.05,0.27,1.89,0.82,2.52s1.29,0.95,2.24,0.95c0.96,0,1.71-0.31,2.23-0.94
		c0.52-0.63,0.78-1.49,0.78-2.6c0-1.14-0.26-2.02-0.78-2.63C42.03,16.79,41.29,16.49,40.35,16.49z"/>
	<path fill="#E2D86A" stroke="#274B69" stroke-width="0.25" stroke-miterlimit="10" d="M46.06,24.03V12.18h0.72v11.84H46.06z"/>
	<path fill="#E2D86A" stroke="#274B69" stroke-width="0.25" stroke-miterlimit="10" d="M54.12,24.03v-1.6h-0.03
		c-0.25,0.55-0.63,0.98-1.11,1.31c-0.49,0.33-1.03,0.49-1.62,0.49c-0.76,0-1.36-0.21-1.8-0.64c-0.44-0.43-0.66-0.97-0.66-1.62
		c0-1.4,0.93-2.24,2.77-2.53l2.46-0.37c0-1.72-0.64-2.58-1.94-2.58c-0.88,0-1.74,0.35-2.57,1.06v-0.87c0.3-0.23,0.7-0.43,1.21-0.6
		s0.99-0.25,1.43-0.25c0.82,0,1.46,0.25,1.91,0.77c0.45,0.51,0.68,1.25,0.68,2.23v5.2H54.12z M51.92,20.04
		c-0.84,0.12-1.43,0.31-1.77,0.58c-0.34,0.27-0.51,0.7-0.51,1.31c0,0.47,0.16,0.86,0.47,1.17c0.32,0.31,0.75,0.46,1.32,0.46
		c0.77,0,1.41-0.29,1.92-0.86c0.51-0.57,0.77-1.31,0.77-2.21v-0.78L51.92,20.04z"/>
	<path fill="#E2D86A" stroke="#274B69" stroke-width="0.25" stroke-miterlimit="10" d="M61.02,16.78c-0.24-0.17-0.52-0.26-0.84-0.26
		c-0.63,0-1.16,0.33-1.59,0.98c-0.43,0.65-0.64,1.58-0.64,2.77v3.76h-0.7v-8h0.7v1.77h0.03c0.18-0.61,0.47-1.08,0.87-1.42
		c0.4-0.34,0.86-0.51,1.38-0.51c0.3,0,0.56,0.05,0.8,0.14V16.78z"/>
</g>
<g>
	<path fill="#E2D86A" d="M0.25,10.03l5.82-0.8L0.25,10.03l3.8,4.35c-0.78-0.3,1.36-5.41,2.02-5.15"/>
</g>
<g>
	<path fill="#E2D86A" d="M0.33,22.79l3.71-4.56L0.33,22.79l5.75,0.59c-0.78,0.31-2.7-4.88-2.04-5.15"/>
</g>
<g>
	<path fill="#E2D86A" d="M9.27,0.5l4.7,3.53L9.27,0.5L8.91,6.27c-0.34-0.76,4.77-2.89,5.06-2.24"/>
</g>
<g>
	<path fill="#E2D86A" stroke="#E2D86A" stroke-width="0.25" stroke-miterlimit="10" d="M18.76,23.66c-0.64,0.37-1.4,0.55-2.27,0.55
		c-1.19,0-2.15-0.37-2.88-1.11s-1.09-1.7-1.09-2.89c0-1.32,0.39-2.38,1.18-3.18s1.83-1.2,3.14-1.2c0.73,0,1.37,0.13,1.93,0.38v1.69
		c-0.56-0.42-1.15-0.63-1.78-0.63c-0.77,0-1.39,0.26-1.88,0.78s-0.73,1.2-0.73,2.04c0,0.83,0.23,1.48,0.69,1.96s1.08,0.72,1.86,0.72
		c0.65,0,1.27-0.23,1.84-0.7V23.66z"/>
	<path fill="#E2D86A" stroke="#E2D86A" stroke-width="0.25" stroke-miterlimit="10" d="M27.81,24.03h-2.3l-3.11-3.84h-0.03v3.84
		h-1.82V12.18h1.82v7.51h0.03l2.94-3.66h2.18l-3.3,3.86L27.81,24.03z"/>
</g>
</svg>
